<svg viewBox="0 0 463.001 463.001" xml:space="preserve" xmlns="http://www.w3.org/2000/svg"><path d="m327.979 199.685 36.833-66.3 53.644-22.99a7.5 7.5 0 0 0 4.4-5.423l8-40a7.498 7.498 0 0 0-6.732-8.944l-95.001-7.917-87.059-31.658a7.5 7.5 0 0 0-1.913-.423l-184-16a7.5 7.5 0 0 0-4.004.764l-48 24a7.5 7.5 0 0 0-3.761 9.08l16 48a7.5 7.5 0 0 0 6.369 5.091l70.08 7.008-12.297 30.744a7.5 7.5 0 0 0-.479 1.855l-7.841 62.725-15.425 30.851a7.5 7.5 0 0 0-.69 4.587l7.512 45.075-14.354 21.53a7.5 7.5 0 0 0 1.555 10.017l39.673 31.739 31.665 31.705a7.5 7.5 0 0 0 5.309 2.2c1.324 0 2.657-.35 3.854-1.067l38.601-23.137 78.33-7.833a7.5 7.5 0 0 0 5.254-2.963l22.402-29.87 29.417-7.354a7.5 7.5 0 0 0 5.536-5.805l7.391-36.954 21.415-14.277a7.5 7.5 0 0 0 2.548-9.594zm-20.638 41.575a7.5 7.5 0 0 0-3.194 4.77l-7.069 35.346-27.396 6.849a7.5 7.5 0 0 0-4.181 2.776l-22.024 29.365-76.722 7.672c-1.1.11-2.162.462-3.11 1.03l-35.017 20.989-27.821-27.856a8 8 0 0 0-.622-.557l-34.63-27.705 12.186-18.279a7.5 7.5 0 0 0 1.158-5.393L71.3 224.673l14.909-29.819c.38-.76.628-1.58.734-2.424l7.88-63.042 15.641-39.103a7.503 7.503 0 0 0-6.217-10.249L29.08 72.521 16.673 35.3l40.288-20.144 180.906 15.731 87.071 31.662a7.5 7.5 0 0 0 1.94.426l87.619 7.302-5.577 27.885-52.374 22.446a7.5 7.5 0 0 0-3.602 3.251l-40 72a7.5 7.5 0 0 0-.152 6.997l13.039 26.078zm122.868-14.405 16-32a7.5 7.5 0 0 0-1.405-8.657l-16-16a7.5 7.5 0 0 0-10.606 0l-32 32a7.5 7.5 0 0 0 5.303 12.803h12.894l13.803 13.803a7.498 7.498 0 0 0 12.011-1.949m-8.762-16.015-8.642-8.642a7.5 7.5 0 0 0-3.434-1.96l14.13-14.13 6.875 6.875zm-42.592 19.369a7.5 7.5 0 0 0 3.354-10.062 7.5 7.5 0 0 0-10.062-3.354l-16 8a7.5 7.5 0 0 0-3.354 10.062 7.5 7.5 0 0 0 10.062 3.354zm-3.354 17.792h-8a7.5 7.5 0 0 0 0 15h8a7.5 7.5 0 0 0 0-15m72-73h8a7.5 7.5 0 0 0 0-15h-8a7.5 7.5 0 0 0 0 15M302.169 380.147a7.5 7.5 0 0 0-6.708-4.146h-24a7.5 7.5 0 0 0-4.881 1.806l-17.386 14.902-27.706 7.556a7.5 7.5 0 0 0-4.735 10.59l16 32a7.5 7.5 0 0 0 6.708 4.146h24a7.5 7.5 0 0 0 7.115-5.128l7.615-22.845 23.27-31.026a7.5 7.5 0 0 0 .708-7.855m-36.708 30.854a7.5 7.5 0 0 0-1.115 2.128l-6.291 18.872h-13.959l-9.836-19.671 20.507-5.593a7.5 7.5 0 0 0 2.908-1.542l16.56-14.194h6.226zm60.708 17.146a7.5 7.5 0 0 0-6.708-4.146h-16a7.5 7.5 0 0 0-6.708 4.146l-8 16a7.5 7.5 0 0 0 3.354 10.062l16 8a7.5 7.5 0 0 0 6.708 0l16-8a7.5 7.5 0 0 0 3.354-10.062zm-14.708 18.968-5.938-2.969 2.573-5.146h6.729l2.573 5.146zm107.943-117.994a7.5 7.5 0 0 0-7.297-.328l-16 8a7.5 7.5 0 0 0-3.857 4.647l-15.466 54.131-4.429 4.429h-4.894a7.5 7.5 0 0 0 0 15h8c1.989 0 3.897-.79 5.303-2.197l6.531-6.531 29.984-7.496a7.5 7.5 0 0 0 5.681-7.276v-56a7.5 7.5 0 0 0-3.556-6.379m-11.443 56.524-13.721 3.431 11.526-40.342 2.195-1.098zm47.5-137.644a7.5 7.5 0 0 0-7.5 7.5v11.986l-20.66 13.773a7.5 7.5 0 0 0-3.34 6.24v24a7.5 7.5 0 0 0 11.661 6.24l24-16a7.5 7.5 0 0 0 3.34-6.24v-40a7.5 7.5 0 0 0-7.501-7.499m-7.5 43.486-9 6v-5.973l9-6zm-251.197 134.71a7.5 7.5 0 0 0-10.606 0 7.5 7.5 0 0 0 0 10.606l8 8c1.464 1.464 3.384 2.197 5.303 2.197s3.839-.732 5.303-2.197a7.5 7.5 0 0 0 0-10.606zm-45.303-42.196h-13.589c-6.369 0-12.094 3.539-14.942 9.235s-2.244 12.399 1.577 17.494l12.954 17.271a7.499 7.499 0 0 0 13.277-2.682l8-32a7.5 7.5 0 0 0-7.277-9.318m-11.454 22.394-3.499-4.666c-.419-.56-.474-1.16-.161-1.786.313-.625.826-.943 1.526-.943h3.983z" style="fill:#154481;fill-opacity:1"/><g/><g/><g/><g/><g/><g/><g/><g/><g/><g/><g/><g/><g/><g/><g/></svg>