<svg xmlns="http://www.w3.org/2000/svg" width="325" height="104"><path style="stroke:none;fill-rule:nonzero;fill:#205c7b;fill-opacity:1" d="M151.324 54.758c9.153 0 11.946-4.367 11.946-9.684 0-6.14-5.329-8.12-9.555-9.07-3.953-.918-5.793-1.098-5.793-2.746 0-1.164 1.016-1.711 3.137-1.711a8.966 8.966 0 0 1 5.593 2.183l4.907-5.253c-2.391-2.45-5.793-4.028-10.57-4.028-6.208 0-11.259 2.664-11.259 9.207 0 6.078 4.438 8.239 8.391 9.282 4.703 1.23 6.555 1.23 6.555 2.8 0 1.227-.914 1.766-3.961 1.766a10.375 10.375 0 0 1-7.23-3.066l-5.391 4.78c2.527 3.005 6.48 5.493 13.234 5.493m-32.95-7.773c-4.093 0-6.616-3.004-6.616-7.32 0-4.321 2.527-7.325 6.617-7.325s6.555 2.93 6.555 7.324c0 4.395-2.454 7.32-6.555 7.32m0 7.774c9.004 0 15.96-6.27 15.96-15.078 0-8.805-6.956-15.211-15.96-15.211-9.008 0-16.027 6.387-16.027 15.25 0 8.86 7.02 15.074 16.027 15.074m-27.461.137a12.319 12.319 0 0 0 8.121-2.653l-3.488-6.406a5.628 5.628 0 0 1-3.203 1.227c-1.426 0-2.387-.614-2.387-3.543V32.727h7.441v-7.641H89.93V9.946H80.78v15.14h-4.304v7.64h4.304v10.508c0 8.73 4.227 11.66 10.067 11.66M62.172 42.349v1.16c0 2.453-1.914 4.094-5.668 4.094-2.586 0-3.953-.914-3.953-2.59 0-1.676 1.023-2.664 3.34-2.664Zm0-5.493h-6.754c-7.168 0-11.898 2.516-11.898 8.73 0 6.747 4.914 9.153 10.234 9.153 3.887 0 6.406-1.289 8.594-4.633l-.2 4.02h9.153V37.648c0-9.152-5.668-13.171-13.102-13.171-6.824 0-9.89 2.113-12.617 4.777l5.117 5.492a9.05 9.05 0 0 1 6.614-2.66c3.066 0 4.707 1.5 4.843 4.852M22.332 46.71c-3.89 0-6.344-2.59-6.344-7.164 0-4.293 2.45-6.957 6.344-6.957 3.89 0 6.555 2.664 6.555 6.957 0 4.574-2.602 7.164-6.555 7.164m-2.656 8.047c4.43 0 7.496-1.766 9.152-4.844l-.2 4.227h9.188V4.89H28.61v24.28c-1.828-2.862-4.437-4.702-9.07-4.702-7.031 0-13.035 6.14-13.035 15.074 0 8.934 6.07 15.215 13.172 15.215M304.992 54.828c4.703 0 9.004-3.203 9.004-8.531 0-3.66-2.187-6.953-2.59-7.77-.41-.914-2.46-3.824-2.46-6.351 0-2.528 1.984-4.293 3.347-4.293s1.43 1.09 1.766 1.902a2.55 2.55 0 0 0 2.324 1.649 2.224 2.224 0 0 0 2.113-2.18c0-2.66-2.8-3.477-4.84-3.477-4.59.118-8.332 3.735-8.594 8.32-.074 3.137 1.5 5.489 1.973 6.68.918 2.188 2.934 4.993 2.934 7.918a4.031 4.031 0 0 1-3.82 4.164c-1.704 0-2.051-.75-2.45-1.914a2.936 2.936 0 0 0-2.8-2.175 2.363 2.363 0 0 0-2.317 2.238c0 2.254 2.45 3.828 6.406 3.828m-12.812-26.059c1.5 0 2.18 1.227 2.18 2.59 0 5.043-8.934 7.91-11.325 7.707.547-2.453 4.778-10.297 9.153-10.297m-8.872 26.059c5.258 0 9.348-4.504 11.051-6.895.274-.199.274-.41-.066-.613l-.75-.613c-.277-.278-.477-.137-.617.062-1.438 2.328-4.438 4.852-7.778 4.852-1.289 0-3.543-1.234-3.543-4.3-.058-2.13.25-4.255.918-6.282a27.765 27.765 0 0 0 9.883-2.742c3.824-1.977 6.344-5.492 6.344-8.871a3.66 3.66 0 0 0-3.652-3.668c-.079 0-.153 0-.227.007-3.277 0-6.965 2.391-9.152 4.579-4.98 4.914-8.73 12.07-8.73 17.8 0 4.504 1.913 6.692 6.343 6.692m-42.707-5.258c0-1.977 2.05-7.566 4.71-11.32 3.481-4.844 8.524-9.153 11.114-9.153 1.235 0 2.324.813 2.324 2.926-.035 8.863-9.793 20.438-15.218 20.438-1.5 0-2.938-.2-2.938-2.926m8.777-39.176c1.153 0 1.903.406 1.903 1.027a4.715 4.715 0 0 1-.477 1.828c-4.363 10.434-9.07 21.356-14.12 33.09a11.455 11.455 0 0 0-1.02 3.953 4.353 4.353 0 0 0 4.183 4.508c.133.004.262 0 .395-.004 6.476 0 10.847-3.078 14.46-6.617 6.68-6.664 8.97-13.328 8.97-17.219 0-3-1.364-5.18-4.84-5.18-3.754 0-9.008 4.231-12.348 8.462l-.402-.141 10.98-24.766c.277-.613.137-1.226-.477-1.226h-8.656c-.41 0-.547.137-.687.547l-.403 1.09c-.136.41.067.687.614.687l1.922-.039Zm-33.636 41.188a3.22 3.22 0 0 1-3.149-3.293c0-.063.004-.122.008-.184 0-3.203 1.64-7.324 3.965-11.05 3.406-5.49 7.02-8.118 9.89-8.118 2.243 0 3.481 1.703 3.407 3.816 0 4.504-7.028 18.828-14.121 18.828m1.023 3.274c9.895 0 15.828-13.574 15.828-21.05 0-4.641-2.746-7.985-7.324-7.985-9.07 0-15.559 11.664-15.559 20.254 0 5.191 3.274 8.808 7.028 8.808m-37.524 10.16c0-3.203 3.004-5.793 8.594-8.043.965.614 5.39 3.477 6.004 3.887 1.711 1.156 4.578 3.004 4.578 6.004 0 3.817-3.89 5.492-8.531 5.492-4.64 0-10.645-2.59-10.645-7.32m12.282-19.781c-2.051 0-3.215-1.563-3.215-4.64 0-5.118 3.488-13.099 7.582-13.099 1.828 0 3.062 1.438 3.062 4.575 0 4.914-2.449 13.172-7.43 13.172m-2.984 29.171c13.371 0 14.528-7.78 14.528-8.87 0-2.528-1.09-4.778-5.047-7.368-4.438-2.926-7.703-4.98-8.867-5.793a2.693 2.693 0 0 1-1.16-1.828c0-1.156 2.25-2.746 3.55-3.27a7.77 7.77 0 0 1 2.04-.488c7.85-1.363 9.757-8.996 9.757-12.273a15.82 15.82 0 0 0-.539-3.824 2.849 2.849 0 0 1 1.977-.915 1.91 1.91 0 0 1 1.289.477 2.638 2.638 0 0 0 2.25 1.023 2.07 2.07 0 0 0 2.183-1.945c.004-.058.008-.113.004-.168a2.748 2.748 0 0 0-2.824-2.668h-.043a9.627 9.627 0 0 0-5.8 2.528 6.652 6.652 0 0 0-5.794-3.204c-7.578 0-12.082 7.91-12.082 13.024a7.947 7.947 0 0 0 5.328 7.844c-4.578 2.601-5.804 3.754-5.804 5.054 0 1.301.613 2.528 2.601 3.953-3.351 1.438-11.535 4.782-11.535 9.833 0 5.05 6.894 8.933 13.984 8.933M314.883 89.582v.805c0 1.113-1.016 1.832-2.453 1.832-1.262 0-1.938-.469-1.938-1.34 0-.867.703-1.29 1.766-1.29Zm0-1.703h-2.793c-2.305 0-4.008.914-4.008 3.062 0 2.282 1.648 3.235 3.66 3.235a3.537 3.537 0 0 0 3.203-1.676l-.074 1.457h2.465v-6.031c0-3.012-1.832-4.395-4.313-4.395a5.083 5.083 0 0 0-4.273 1.828l1.41 1.438a3.324 3.324 0 0 1 2.672-1.215c1.316 0 2.04.68 2.04 2.305m-12.685 6.297a5.096 5.096 0 0 0 4.184-1.829l-1.683-1.457a3.108 3.108 0 0 1-2.5 1.145 3.179 3.179 0 0 1-2.868-3.457 3.173 3.173 0 0 1 2.868-2.867 2.837 2.837 0 0 1 2.378 1.187l1.758-1.472a4.864 4.864 0 0 0-4.129-1.942 5.327 5.327 0 1 0 0 10.645m-10.601-.219h2.48V83.75h-2.48Zm1.238-12.54a1.618 1.618 0 1 0-1.621-1.616c0 .894.726 1.617 1.621 1.617m-6.977 12.539h2.454V76.402h-2.454Zm-8.144-1.938a3.16 3.16 0 0 1-2.91-3.386 3.162 3.162 0 0 1 2.91-2.91 2.828 2.828 0 0 1 2.894 3.113c0 1.918-1.117 3.183-2.89 3.183m.629 2.16c2.656 0 4.789-2.261 4.789-5.343 0-3.086-2.09-5.3-4.742-5.3a3.883 3.883 0 0 0-3.543 1.987v-9.152h-2.48v17.625h2.48l-.07-1.828a3.801 3.801 0 0 0 3.566 2.07m-14.926 0a3.66 3.66 0 0 0 3.43-2.09l-.047 1.832h2.453V83.754H266.8v5.492a2.435 2.435 0 0 1-2.196 2.652 2.397 2.397 0 0 1-.41 0c-1.43 0-2.117-.847-2.117-2.316v-5.828h-2.45v6.074c0 2.746 1.556 4.348 3.79 4.348m.125-12.348h1.894l2.38-4.574H265Zm-11.898 10.188a3.158 3.158 0 0 1 0-6.297 2.834 2.834 0 0 1 2.91 2.75c0 .12 0 .242-.016.363 0 1.922-1.113 3.184-2.89 3.184m-5.344 7.093h2.48v-6.898a3.743 3.743 0 0 0 3.496 1.965c2.653 0 4.797-2.262 4.797-5.344 0-3.086-2.113-5.3-4.742-5.3a3.866 3.866 0 0 0-3.66 2.116l.07-1.898h-2.441Zm-18.262-5.152h2.46v-5.492a2.448 2.448 0 0 1 2.645-2.63c1.438 0 2.114.853 2.114 2.31V94h2.453v-6.098c0-2.746-1.555-4.375-3.817-4.375a3.663 3.663 0 0 0-3.449 2.114l.055-1.895h-2.465V93.95Zm-8.09-1.894a3.202 3.202 0 1 1 0-6.406 3.21 3.21 0 0 1 2.961 3.44 3.217 3.217 0 0 1-2.96 2.966m0 2.113a5.325 5.325 0 0 0 5.155-5.489 5.326 5.326 0 0 0-10.648.165 5.297 5.297 0 0 0 5.27 5.328c.074 0 .144 0 .222-.004m-.918-12.348h1.899l2.379-4.574h-2.82Zm-9.726 12.129h2.48V83.75h-2.48Zm1.234-12.539a1.622 1.622 0 0 0 0-3.242 1.622 1.622 0 0 0 0 3.242m-7.824 12.758a5.103 5.103 0 0 0 4.18-1.832l-1.672-1.457a3.124 3.124 0 0 1-2.508 1.144 3.18 3.18 0 0 1-2.871-3.457 3.18 3.18 0 0 1 2.87-2.867 2.835 2.835 0 0 1 2.38 1.191l1.746-1.464a4.864 4.864 0 0 0-4.13-1.942 5.327 5.327 0 0 0-5.542 5.102 5.324 5.324 0 0 0 5.543 5.543m-10.41-4.575v.805c0 1.117-1.016 1.832-2.45 1.832-1.265 0-1.949-.469-1.949-1.336 0-.87.703-1.289 1.774-1.289Zm0-1.703h-2.743c-2.316 0-4.019.914-4.019 3.067 0 2.277 1.656 3.23 3.66 3.23a3.54 3.54 0 0 0 3.215-1.676l-.121 1.477h2.453v-6.031c0-3.012-1.828-4.395-4.3-4.395a5.086 5.086 0 0 0-4.278 1.828l1.41 1.438a3.33 3.33 0 0 1 2.672-1.215c1.309 0 2.043.68 2.043 2.305m-24.969 6.078h2.453v-5.602c0-1.703.848-2.57 2.317-2.57 1.464 0 1.894.777 1.894 2.187v5.977h2.453v-5.594c0-1.703.848-2.57 2.285-2.57 1.438 0 1.922.777 1.922 2.187v5.977h2.493V87.73c0-2.597-1.438-4.199-3.848-4.199a4.09 4.09 0 0 0-3.477 1.903 3.034 3.034 0 0 0-2.992-1.942 3.343 3.343 0 0 0-3.039 1.969v-1.746h-2.453l-.012 10.25Zm-9.07 0h2.46v-4.973c0-2.281 1-3.129 2.454-3.129.465 0 .926.117 1.336.336l.824-2.215a3.011 3.011 0 0 0-1.676-.437 3.093 3.093 0 0 0-2.965 2.113v-1.914h-2.464l.03 10.215Zm-8.063-1.903a3.202 3.202 0 1 1 0-6.406 3.21 3.21 0 0 1 2.961 3.442 3.217 3.217 0 0 1-2.96 2.965m0 2.113a5.325 5.325 0 0 0 5.156-5.489 5.326 5.326 0 0 0-10.649.165 5.296 5.296 0 0 0 5.266 5.328c.078 0 .148 0 .226-.004m-12.3-.219h2.449v-8.144h2.746v-2.06h-2.746v-4.062c0-1.027.441-1.382 1.074-1.382.469-.008.914.218 1.187.601l1.465-1.555a3.473 3.473 0 0 0-2.89-1.265c-2.094 0-3.285 1.164-3.285 3.664v4.035h-1.676v2.059h1.676Zm-13.493 0h2.453v-5.488a2.44 2.44 0 0 1 2.243-2.63c.136-.01.273-.01.41 0 1.43 0 2.113.849 2.113 2.306v5.859h2.453v-6.098c0-2.746-1.554-4.375-3.816-4.375a3.65 3.65 0 0 0-3.45 2.114V83.75h-2.425l.015 10.203Zm-5.664 0h2.48V83.754h-2.48Zm1.25-12.539a1.619 1.619 0 1 0 .005-3.238 1.619 1.619 0 0 0-.005 3.238m-12.343 8.164v.809c0 1.113-1.02 1.828-2.454 1.828-1.265 0-1.949-.469-1.949-1.336 0-.867.703-1.29 1.774-1.29Zm0-1.703h-2.747c-2.316 0-4.02.918-4.02 3.066 0 2.282 1.657 3.23 3.661 3.23a3.537 3.537 0 0 0 3.215-1.671l-.074 1.453h2.453v-6.031c0-3.012-1.828-4.395-4.301-4.395a5.078 5.078 0 0 0-4.277 1.832l1.41 1.438a3.33 3.33 0 0 1 2.672-1.215c1.308 0 2.043.676 2.043 2.305m-11.91 6.066h2.453V76.402H95.77Zm-11.137-4.375v.809c0 1.113-1.016 1.828-2.453 1.828-1.262 0-1.95-.469-1.95-1.336 0-.867.704-1.29 1.778-1.29Zm0-1.703H81.84c-2.317 0-4.016.918-4.016 3.066 0 2.282 1.656 3.23 3.66 3.23a3.541 3.541 0 0 0 3.215-1.671l-.074 1.453h2.453v-6.031c0-3.012-1.832-4.395-4.305-4.395a5.07 5.07 0 0 0-4.273 1.832l1.41 1.438a3.324 3.324 0 0 1 2.672-1.215c1.309 0 2.04.676 2.04 2.305M67.14 93.965h8.757V91.96h-5.007l5.28-7.945v-.266h-8.437v1.988h4.657l-5.243 7.934-.011.293Zm-4.79 0h2.481V83.75h-2.508Zm1.247-12.54a1.62 1.62 0 0 0 1.613-1.628 1.62 1.62 0 0 0-1.629-1.613 1.624 1.624 0 0 0-1.613 1.613c-.02.879.676 1.61 1.554 1.629h.075m-6.985 12.539h2.461V76.402h-2.453Zm-5.758 0h2.48V83.75h-2.468Zm1.235-12.54a1.619 1.619 0 1 0 .005-3.237 1.619 1.619 0 0 0-.005 3.238m-5.887 12.812a3.568 3.568 0 0 0 2.629-.98l-1.156-1.684a1.83 1.83 0 0 1-1.215.489c-.633 0-1.027-.34-1.027-1.512v-4.742h2.746V83.75h-2.746v-5.328h-2.45v5.328h-1.53v2.059h1.53v4.695c0 2.746 1.317 3.66 3.23 3.66m-12.948 0c1.453.05 2.8-.766 3.43-2.078l-.048 1.832h2.454V83.75H36.64v5.488a2.43 2.43 0 0 1-2.602 2.657c-1.437 0-2.113-.852-2.113-2.317V83.75h-2.461v6.074c0 2.746 1.555 4.348 3.797 4.348m-14.516-6.195a2.797 2.797 0 0 1 2.965-2.407 2.593 2.593 0 0 1 2.746 2.407Zm0 1.703h8.238c.164-3.578-1.832-6.153-5.28-6.153a5.289 5.289 0 0 0-5.49 5.086c-.003.078-.007.157-.003.235 0 3.066 2.262 5.328 5.766 5.328a5.74 5.74 0 0 0 4.304-1.656l-1.41-1.5a4.133 4.133 0 0 1-2.89 1.09 2.947 2.947 0 0 1-3.231-2.426m-10.7 4.273h2.462v-4.96c0-2.282.988-3.134 2.453-3.134.465 0 .926.117 1.336.34l.824-2.215a3.08 3.08 0 0 0-1.676-.441 3.096 3.096 0 0 0-2.965 2.117V83.75H8.051Zm0 0"/><path style="stroke:none;fill-rule:nonzero;fill:#cd0e2d;fill-opacity:1" d="M171.855 54.426a4.012 4.012 0 0 0 3.993-4.028 4.01 4.01 0 0 0-8.02 0 3.953 3.953 0 0 0 3.879 4.028h.148M265.578 54.426a4.01 4.01 0 1 0-4.027-4.028 3.956 3.956 0 0 0 3.879 4.028h.148"/></svg>